<svg width="24" height="24" viewBox="0 0 24 24" fill="none" xmlns="http://www.w3.org/2000/svg">
<path d="M15.8742 16.9717C15.8742 18.9203 14.1509 20.5 12.0251 20.5C9.89933 20.5 8.17605 18.9203 8.17605 16.9717M15.8742 16.9717H18.1809C19.4766 16.9717 20.2008 15.4768 19.3977 14.46L18.2256 12.976V9.72821C18.2256 6.28847 15.4371 3.5 11.9974 3.5C8.53698 3.5 5.74004 6.32074 5.76936 9.781L5.79496 12.8019L4.58839 14.4112C3.79735 15.4663 4.5502 16.9717 5.8689 16.9717H8.17605M15.8742 16.9717H8.17605" stroke="#99999C" stroke-width="1.8"/>
<rect x="14" y="2" width="8" height="8" rx="4" fill="#FF4E4E"/>
<rect x="14" y="2" width="8" height="8" rx="4" stroke="white" stroke-width="1.4"/>
</svg>
